<svg width="737" height="163" viewBox="0 0 737 163" fill="none" xmlns="http://www.w3.org/2000/svg">
<g clip-path="url(#clip0_1_162)">
<path d="M121.379 10.4764C132.419 17.2689 140.361 26.8212 145.206 39.1334C150.051 51.4456 151.247 65.3984 148.779 80.9918C146.31 96.5852 140.698 110.538 131.943 122.85C123.188 135.162 112.225 144.715 99.0392 151.507C85.8531 158.3 71.5323 161.703 56.0922 161.703H1.30819C0.464892 161.703 -0.117753 161.014 0.0202419 160.17L25.1046 1.81343C25.2426 0.970126 26.0399 0.280151 26.8832 0.280151H81.6672C97.1073 0.280151 110.355 3.68403 121.379 10.4764ZM87.831 129.075C96.1873 124.644 103.072 118.235 108.515 109.863C113.943 101.492 117.531 91.8628 119.248 80.9918C120.996 69.9676 120.474 60.3079 117.669 52.0129C114.878 43.7179 110.002 37.3394 103.056 32.9083C96.1107 28.4771 87.463 26.2539 77.1287 26.2539L51.5077 26.4685C51.0937 26.4685 50.695 26.8212 50.6184 27.2352L33.5837 134.764C33.5223 135.178 33.7983 135.53 34.2276 135.53L59.7874 135.745C70.1216 135.745 79.4746 133.522 87.831 129.091V129.075Z" fill="#212121"/>
<path d="M334.756 161.704H311.512C310.883 161.704 310.392 161.336 310.239 160.753L281.291 48.3484C281.03 47.3365 281.95 46.2172 283.054 46.2172H311.328C311.972 46.2172 312.493 46.6158 312.616 47.2291L328.914 124.43L370.512 47.2138C370.834 46.6158 371.463 46.2172 372.107 46.2172H401.009C402.113 46.2172 402.68 47.3518 402.082 48.3638L336.289 160.768C335.952 161.336 335.339 161.704 334.725 161.704H334.756Z" fill="#212121"/>
<path d="M526.157 7.25644C533.64 11.9023 539.022 18.4187 542.303 26.7904C545.584 35.1621 546.366 44.791 544.633 55.662C542.901 66.5329 539.144 75.7632 533.211 84.2116C527.261 92.6599 519.825 99.207 510.871 103.853C501.916 108.499 492.134 110.829 481.508 110.829H443.514L435.694 160.17C435.556 161.013 434.759 161.703 433.916 161.703H407.451C406.608 161.703 406.025 161.013 406.163 160.17L431.232 1.81331C431.37 0.970004 432.168 0.280029 433.011 0.280029H499.003C509.629 0.280029 518.675 2.61061 526.157 7.25644ZM506.409 77.2352C511.929 71.8687 515.409 64.6776 516.835 55.662C518.261 46.6463 517.096 39.2406 513.278 33.8741C509.445 28.5076 501.962 25.8244 493.897 25.8244H457.727C457.298 25.8244 456.899 26.1617 456.838 26.5911L447.669 84.5182C447.608 84.9476 447.884 85.2849 448.313 85.2849H484.483C492.563 85.2849 500.889 82.6016 506.424 77.2352H506.409Z" fill="#2BB7B3"/>
<path d="M605.596 51.6757C611.607 48.3178 619.656 46.5086 625.866 46.2479C626.725 46.2172 627.323 46.9225 627.185 47.7812L623.536 70.857C623.398 71.685 622.631 72.3596 621.803 72.3749C615.823 72.5896 609.291 74.0155 603.925 76.2848C598.053 78.7687 593.437 81.8046 589.911 87.0791C586.384 92.3689 583.962 101.047 583.149 106.199L574.609 160.155C574.471 160.998 573.673 161.688 572.83 161.688H546.994C546.151 161.688 545.568 160.998 545.706 160.155L563.508 47.7352C563.646 46.8919 564.443 46.2019 565.286 46.2019H591.122C591.965 46.2019 592.548 46.8919 592.41 47.7352L589.558 65.7052C593.713 59.9861 599.064 55.3096 605.596 51.6757Z" fill="#2BB7B3"/>
<path d="M717.327 53.6229C724.902 58.56 730.36 65.4291 733.718 74.2301C737.076 83.0311 737.858 93.0894 736.064 104.39C734.301 115.552 730.329 125.564 724.181 134.442C718.033 143.32 710.32 150.219 701.029 155.156C691.752 160.094 681.648 162.562 670.746 162.562C659.845 162.562 650.814 160.094 643.224 155.156C635.65 150.219 630.191 143.32 626.849 134.442C623.506 125.564 622.724 115.552 624.487 104.39C626.281 93.0894 630.237 83.0311 636.386 74.2301C642.519 65.4291 650.231 58.56 659.523 53.6229C668.799 48.6857 678.827 46.2172 689.59 46.2172C700.354 46.2172 709.738 48.6857 717.312 53.6229H717.327ZM690.28 134.12C694.911 131.329 698.79 127.389 701.918 122.314C705.046 117.239 707.146 111.259 708.235 104.39C709.324 97.5206 709.109 91.5101 707.606 86.3583C706.104 81.2065 703.482 77.2047 699.741 74.3375C695.999 71.4702 691.292 70.0443 685.604 70.0443C679.915 70.0443 674.978 71.4702 670.332 74.3375C665.687 77.2047 661.792 81.2372 658.649 86.4657C655.506 91.6941 653.39 97.6586 652.332 104.39C651.243 111.259 651.458 117.239 652.976 122.314C654.494 127.389 657.131 131.329 660.872 134.12C664.613 136.91 669.336 138.306 675.024 138.306C680.713 138.306 685.65 136.91 690.28 134.12Z" fill="#2BB7B3"/>
<path d="M267.413 94.8374C267.704 85.6837 266.738 77.3273 262.875 69.5536C259.532 62.8379 254.227 57.1341 247.833 52.7643C241.439 48.3944 233.006 46.2172 222.519 46.2172C212.031 46.2172 201.589 48.6857 192.451 53.6229C183.313 58.56 175.708 65.4291 169.636 74.2301C163.564 83.0311 159.639 93.0894 157.845 104.39C156.051 115.69 156.802 125.718 160.099 134.442C163.396 143.166 168.823 150.005 176.398 154.942C183.972 159.879 193.218 162.348 204.119 162.348C216.447 162.348 226.153 160.17 235.552 155.8C240.473 153.516 245.518 150.265 249.872 146.677C250.593 146.095 250.746 145.098 250.225 144.485L237.238 129.045C236.763 128.477 235.858 128.447 235.168 128.968C232.531 130.946 228.406 133.277 224.512 134.917C220.142 136.757 215.113 138.091 208.183 138.091C201.252 138.091 195.717 135.868 190.749 131.437C185.781 127.005 183.297 121.21 183.297 114.049H262.982C263.81 114.049 264.592 113.39 264.745 112.562C265.404 108.944 267.26 99.6518 267.413 94.8374ZM240.673 93.2274H187.56C187.069 93.2274 186.763 92.7674 186.947 92.2921C189.308 86.2663 193.31 81.0992 198.968 76.806C204.917 72.2982 211.433 70.0443 218.532 70.0443C226.045 70.0443 231.703 72.3289 235.506 76.9134C239.124 81.2679 241.148 86.389 241.577 92.2768C241.608 92.7521 241.163 93.2274 240.673 93.2274Z" fill="#212121"/>
</g>
<defs>
<clipPath id="clip0_1_162">
<rect width="737" height="162.282" fill="white" transform="translate(0 0.280029)"/>
</clipPath>
</defs>
</svg>
